<svg width="19" height="20" fill="none" xmlns="http://www.w3.org/2000/svg"><path fill-rule="evenodd" clip-rule="evenodd" d="M9.354 1.992a28.618 28.618 0 013.732.1 4.81 4.81 0 011.764.311 3.642 3.642 0 011.763 1.763c.212.565.317 1.164.308 1.767 0 .933.1 1.244.1 3.733a28.608 28.608 0 01-.1 3.733c.007.602-.098 1.2-.311 1.763a3.641 3.641 0 01-1.763 1.763 4.809 4.809 0 01-1.763.311c-.934 0-1.245.1-3.733.1a28.49 28.49 0 01-3.73-.103 4.809 4.809 0 01-1.763-.311 3.642 3.642 0 01-1.763-1.759 4.81 4.81 0 01-.311-1.763c0-.933-.1-1.244-.1-3.733a28.617 28.617 0 01.1-3.733 4.81 4.81 0 01.31-1.763c.182-.385.427-.736.727-1.038a1.753 1.753 0 011.037-.726 4.81 4.81 0 011.763-.311 28.619 28.619 0 013.733-.1v-.004zm0-1.659a30.642 30.642 0 00-3.833.1 6.4 6.4 0 00-2.285.419 4.06 4.06 0 00-1.66 1.037A4.06 4.06 0 00.54 3.548a4.725 4.725 0 00-.42 2.285 30.642 30.642 0 00-.1 3.833 30.641 30.641 0 00.1 3.837 6.4 6.4 0 00.416 2.281 4.06 4.06 0 001.037 1.659c.46.476 1.03.832 1.659 1.037a6.399 6.399 0 002.28.415c1.276.114 2.558.147 3.838.1 1.28.047 2.56.014 3.837-.1a6.398 6.398 0 002.28-.415 4.35 4.35 0 002.7-2.7 6.398 6.398 0 00.415-2.281c0-1.037.1-1.348.1-3.837.047-1.28.014-2.561-.1-3.837a6.399 6.399 0 00-.415-2.281 4.059 4.059 0 00-1.037-1.659A4.06 4.06 0 0015.474.852 6.4 6.4 0 0013.19.433a30.64 30.64 0 00-3.836-.1zm0 4.563a4.694 4.694 0 00-4.77 4.77 4.77 4.77 0 104.77-4.77zm0 7.881a3.055 3.055 0 01-3.111-3.111 3.056 3.056 0 013.11-3.111 3.056 3.056 0 013.111 3.111 3.055 3.055 0 01-3.11 3.111zm4.978-9.23a1.141 1.141 0 101.14 1.141 1.15 1.15 0 00-1.14-1.141z" fill="#fff"/></svg>