<svg width="19" height="16" fill="none" xmlns="http://www.w3.org/2000/svg"><path fill-rule="evenodd" clip-rule="evenodd" d="M5.932 15.808A10.794 10.794 0 0016.82 4.918V4.4a8.432 8.432 0 001.867-1.97 8.61 8.61 0 01-2.178.622 4.035 4.035 0 001.66-2.074c-.75.417-1.552.73-2.385.933a3.7 3.7 0 00-2.8-1.244 3.9 3.9 0 00-3.837 3.837c-.025.28.009.563.1.83A10.722 10.722 0 011.366 1.29a3.98 3.98 0 00-.52 1.97 4.12 4.12 0 001.66 3.215 3.5 3.5 0 01-1.763-.52 3.79 3.79 0 003.11 3.734 3.2 3.2 0 01-1.036.1 1.765 1.765 0 01-.726-.1 3.929 3.929 0 003.63 2.7 7.83 7.83 0 01-4.77 1.659 2.872 2.872 0 01-.933-.1 9.788 9.788 0 005.91 1.867" fill="#fff"/></svg>